<?xml version="1.0" encoding="UTF-8" standalone="no"?>
<!DOCTYPE svg PUBLIC "-//W3C//DTD SVG 1.1//EN" "http://www.w3.org/Graphics/SVG/1.1/DTD/svg11.dtd">
<svg width="100%" height="100%" viewBox="0 0 1529 295" version="1.1" xmlns="http://www.w3.org/2000/svg" xmlns:xlink="http://www.w3.org/1999/xlink" xml:space="preserve" xmlns:serif="http://www.serif.com/" style="fill-rule:evenodd;clip-rule:evenodd;stroke-linejoin:round;stroke-miterlimit:2;">
    <g id="Artboard1" transform="matrix(1.6293,0,0,0.495555,-799.903,-124.448)">
        <rect x="490.947" y="251.13" width="938.105" height="594.219" style="fill:none;"/>
        <clipPath id="_clip1">
            <rect x="490.947" y="251.13" width="938.105" height="594.219"/>
        </clipPath>
        <g clip-path="url(#_clip1)">
            <g transform="matrix(20.0662,0,0,65.9743,-13944.4,-47062.3)">
                <path d="M719.417,726.056L719.417,717.656L721.361,717.656L721.361,724.472L725.573,724.472L725.573,726.056L719.417,726.056Z" style="fill:rgb(99,107,255);fill-rule:nonzero;"/>
            </g>
            <g transform="matrix(20.0662,0,0,65.9743,-13944.4,-47062.3)">
                <path d="M729.089,726.152C728.353,726.152 727.707,726.008 727.151,725.72C726.595,725.432 726.165,725.038 725.861,724.538C725.557,724.038 725.405,723.468 725.405,722.828C725.405,722.18 725.555,721.606 725.855,721.106C726.155,720.606 726.565,720.214 727.085,719.93C727.605,719.646 728.197,719.504 728.861,719.504C729.469,719.504 730.025,719.632 730.529,719.888C731.033,720.144 731.437,720.516 731.741,721.004C732.045,721.492 732.197,722.08 732.197,722.768L726.989,723.776L726.965,722.684L731.093,721.892L730.457,722.54C730.457,722.22 730.389,721.94 730.253,721.7C730.117,721.46 729.931,721.27 729.695,721.13C729.459,720.99 729.181,720.92 728.861,720.92C728.541,720.92 728.259,720.99 728.015,721.13C727.771,721.27 727.581,721.474 727.445,721.742C727.309,722.01 727.241,722.336 727.241,722.72C727.241,723.144 727.317,723.5 727.469,723.788C727.621,724.076 727.839,724.292 728.123,724.436C728.407,724.58 728.745,724.652 729.137,724.652C729.481,724.652 729.781,724.6 730.037,724.496C730.293,724.392 730.533,724.236 730.757,724.028L731.753,725.108C731.457,725.444 731.085,725.702 730.637,725.882C730.189,726.062 729.673,726.152 729.089,726.152Z" style="fill:rgb(99,107,255);fill-rule:nonzero;"/>
            </g>
            <g transform="matrix(20.0662,0,0,65.9743,-13944.4,-47062.3)">
                <path d="M736.541,719.504C737.053,719.504 737.511,719.606 737.915,719.81C738.319,720.014 738.637,720.326 738.869,720.746C739.101,721.166 739.217,721.704 739.217,722.36L739.217,726.056L737.345,726.056L737.345,722.648C737.345,722.128 737.231,721.744 737.003,721.496C736.775,721.248 736.453,721.124 736.037,721.124C735.741,721.124 735.475,721.186 735.239,721.31C735.003,721.434 734.819,721.624 734.687,721.88C734.555,722.136 734.489,722.464 734.489,722.864L734.489,726.056L732.617,726.056L732.617,719.6L734.405,719.6L734.405,721.388L734.069,720.848C734.301,720.416 734.633,720.084 735.065,719.852C735.497,719.62 735.989,719.504 736.541,719.504Z" style="fill:rgb(99,107,255);fill-rule:nonzero;"/>
            </g>
            <g transform="matrix(3.77089,0,0,12.3981,6.77813,-3436.61)">
                <g transform="matrix(5.32133,0,0,5.32133,-3725.59,-3518.74)">
                    <path d="M756.677,726.2C756.029,726.2 755.427,726.094 754.871,725.882C754.315,725.67 753.833,725.368 753.425,724.976C753.017,724.584 752.699,724.124 752.471,723.596C752.243,723.068 752.129,722.488 752.129,721.856C752.129,721.224 752.243,720.644 752.471,720.116C752.699,719.588 753.019,719.128 753.431,718.736C753.843,718.344 754.325,718.042 754.877,717.83C755.429,717.618 756.033,717.512 756.689,717.512C757.417,717.512 758.075,717.638 758.663,717.89C759.251,718.142 759.745,718.512 760.145,719L758.897,720.152C758.609,719.824 758.289,719.578 757.937,719.414C757.585,719.25 757.201,719.168 756.785,719.168C756.393,719.168 756.033,719.232 755.705,719.36C755.377,719.488 755.093,719.672 754.853,719.912C754.613,720.152 754.427,720.436 754.295,720.764C754.163,721.092 754.097,721.456 754.097,721.856C754.097,722.256 754.163,722.62 754.295,722.948C754.427,723.276 754.613,723.56 754.853,723.8C755.093,724.04 755.377,724.224 755.705,724.352C756.033,724.48 756.393,724.544 756.785,724.544C757.201,724.544 757.585,724.462 757.937,724.298C758.289,724.134 758.609,723.884 758.897,723.548L760.145,724.7C759.745,725.188 759.251,725.56 758.663,725.816C758.075,726.072 757.413,726.2 756.677,726.2Z" style="fill:rgb(99,107,255);fill-rule:nonzero;"/>
                </g>
                <g transform="matrix(5.32133,0,0,5.32133,-3725.59,-3518.74)">
                    <path d="M763.241,726.152C762.633,726.152 762.085,726.014 761.597,725.738C761.109,725.462 760.723,725.076 760.439,724.58C760.155,724.084 760.013,723.5 760.013,722.828C760.013,722.148 760.155,721.56 760.439,721.064C760.723,720.568 761.109,720.184 761.597,719.912C762.085,719.64 762.633,719.504 763.241,719.504C763.785,719.504 764.261,719.624 764.669,719.864C765.077,720.104 765.393,720.468 765.617,720.956C765.841,721.444 765.953,722.068 765.953,722.828C765.953,723.58 765.845,724.202 765.629,724.694C765.413,725.186 765.103,725.552 764.699,725.792C764.295,726.032 763.809,726.152 763.241,726.152ZM763.565,724.616C763.869,724.616 764.145,724.544 764.393,724.4C764.641,724.256 764.839,724.05 764.987,723.782C765.135,723.514 765.209,723.196 765.209,722.828C765.209,722.452 765.135,722.132 764.987,721.868C764.839,721.604 764.641,721.4 764.393,721.256C764.145,721.112 763.869,721.04 763.565,721.04C763.253,721.04 762.973,721.112 762.725,721.256C762.477,721.4 762.279,721.604 762.131,721.868C761.983,722.132 761.909,722.452 761.909,722.828C761.909,723.196 761.983,723.514 762.131,723.782C762.279,724.05 762.477,724.256 762.725,724.4C762.973,724.544 763.253,724.616 763.565,724.616ZM765.257,726.056L765.257,724.736L765.293,722.816L765.173,720.908L765.173,719.6L767.045,719.6L767.045,726.056L765.257,726.056Z" style="fill:rgb(99,107,255);fill-rule:nonzero;"/>
                </g>
                <g transform="matrix(5.32133,0,0,5.32133,-3725.59,-3518.74)">
                    <path d="M770.009,726.152C769.281,726.152 768.713,725.96 768.305,725.576C767.897,725.192 767.693,724.64 767.693,723.92L767.693,717.152L769.565,717.152L769.565,723.812C769.565,724.084 769.635,724.294 769.775,724.442C769.915,724.59 770.113,724.664 770.369,724.664C770.473,724.664 770.573,724.652 770.669,724.628C770.765,724.604 770.841,724.576 770.897,724.544L770.981,725.996C770.821,726.044 770.659,726.082 770.495,726.11C770.331,726.138 770.169,726.152 770.009,726.152Z" style="fill:rgb(99,107,255);fill-rule:nonzero;"/>
                </g>
            </g>
            <g transform="matrix(3.77089,0,0,12.3981,104.394,-3436.61)">
                <path d="M237.856,341.379C237.108,342.192 236.264,342.878 235.325,343.436C233.175,344.713 230.589,345.352 227.566,345.352C224.331,345.352 221.415,344.617 218.818,343.149C216.221,341.68 214.167,339.626 212.656,336.987C211.145,334.347 210.389,331.24 210.389,327.664C210.389,324.045 211.145,320.916 212.656,318.277C214.167,315.637 216.221,313.594 218.818,312.147C221.415,310.699 224.331,309.976 227.566,309.976C230.461,309.976 232.994,310.614 235.165,311.891C236.163,312.478 237.057,313.204 237.847,314.069L237.847,297.46L247.809,297.46L247.809,344.841L238.294,344.841L238.294,344.831L237.856,344.831L237.856,341.379ZM229.29,337.178C230.908,337.178 232.377,336.795 233.697,336.029C235.016,335.263 236.07,334.166 236.857,332.74C237.645,331.314 238.039,329.622 238.039,327.664C238.039,325.663 237.645,323.96 236.857,322.555C236.07,321.15 235.016,320.065 233.697,319.299C232.377,318.532 230.908,318.149 229.29,318.149C227.63,318.149 226.14,318.532 224.821,319.299C223.501,320.065 222.447,321.15 221.66,322.555C220.872,323.96 220.478,325.663 220.478,327.664C220.478,329.622 220.872,331.314 221.66,332.74C222.447,334.166 223.501,335.263 224.821,336.029C226.14,336.795 227.63,337.178 229.29,337.178Z" style="fill:rgb(99,107,255);fill-rule:nonzero;"/>
            </g>
        </g>
    </g>
</svg>
